<?xml version="1.0" standalone="no"?>
<!DOCTYPE svg PUBLIC "-//W3C//DTD SVG 20010904//EN"
 "http://www.w3.org/TR/2001/REC-SVG-20010904/DTD/svg10.dtd">
<svg version="1.0" xmlns="http://www.w3.org/2000/svg"
 width="600.000000pt" height="600.000000pt" viewBox="0 0 600.000000 600.000000"
 preserveAspectRatio="xMidYMid meet">
<metadata>
Created by potrace 1.11, written by Peter Selinger 2001-2013
</metadata>
<g transform="translate(0.000000,600.000000) scale(0.100000,-0.100000)"
fill="#000000" stroke="none">
<path d="M2150 5754 c0 -11 -7 -30 -16 -42 -15 -22 -14 -26 25 -91 22 -38 67
-105 100 -149 33 -45 57 -83 53 -85 -4 -3 -29 -8 -57 -11 -140 -20 -450 -111
-481 -142 -13 -13 -18 -30 -16 -53 5 -49 -11 -60 -49 -32 -23 17 -34 20 -42
12 -16 -16 -47 -13 -47 5 0 11 -6 14 -22 9 -50 -15 -349 -168 -341 -174 4 -4
60 -29 123 -56 161 -67 290 -127 290 -135 0 -4 -48 -44 -107 -88 -132 -98
-298 -247 -375 -335 l-58 -65 66 -22 c73 -25 88 -44 56 -71 -12 -9 -22 -19
-22 -22 0 -2 89 -7 197 -10 108 -4 198 -9 201 -12 3 -2 -25 -50 -62 -106 -71
-110 -80 -134 -43 -124 12 4 31 9 42 12 11 3 27 11 35 18 8 7 38 15 65 18 28
3 57 8 66 12 11 4 18 0 22 -14 3 -12 12 -21 21 -21 14 0 16 20 16 155 0 85 3
155 8 155 8 0 79 -18 102 -26 11 -4 6 -10 -15 -19 -28 -12 -23 -13 65 -15 104
-2 175 -18 83 -19 -29 -1 -53 -5 -53 -11 0 -12 148 -58 215 -66 37 -5 59 -15
83 -37 l32 -31 0 26 0 25 129 7 c335 18 672 95 945 217 61 27 111 47 113 45 2
-2 15 -45 28 -95 14 -50 41 -131 61 -179 33 -80 51 -117 107 -212 20 -33 20
-34 1 -18 -35 30 -228 117 -317 142 -181 52 -404 56 -539 11 -46 -16 -87 -49
-75 -61 3 -4 42 1 87 10 104 21 327 21 446 1 109 -19 268 -72 366 -121 52 -26
99 -62 163 -123 84 -81 183 -149 262 -180 28 -11 31 -16 22 -33 -6 -11 -9 -21
-7 -23 2 -3 35 15 72 38 57 34 80 42 130 45 84 5 127 -14 165 -73 39 -62 48
-132 27 -214 -59 -230 -252 -401 -496 -439 l-96 -15 -46 -76 c-114 -184 -183
-243 -423 -360 -237 -117 -465 -205 -660 -255 -208 -54 -410 -23 -553 86 -58
43 -179 199 -254 326 -149 252 -254 622 -235 828 6 62 -2 84 -31 84 -12 0 -14
-27 -9 -172 4 -145 9 -188 31 -268 63 -226 176 -467 299 -638 122 -170 205
-238 352 -286 57 -18 217 -37 256 -29 28 5 64 -23 38 -31 -90 -26 -95 -26
-155 -4 -44 16 -82 22 -154 22 -112 1 -154 -15 -243 -93 -41 -36 -70 -52 -109
-61 -29 -7 -66 -19 -83 -28 -45 -22 -155 -112 -155 -126 0 -7 -33 -22 -72 -35
-115 -37 -312 -125 -395 -177 -245 -152 -380 -422 -463 -924 -16 -96 -36 -237
-45 -313 -12 -113 -22 -155 -50 -223 -19 -46 -35 -86 -35 -89 0 -3 217 -4 483
-4 265 1 472 4 460 6 -13 2 -23 10 -23 16 -1 14 -75 50 -92 45 -6 -2 -27 11
-46 29 -32 31 -61 45 -47 23 3 -5 1 -10 -4 -10 -6 0 -11 5 -11 10 0 6 0 13 -1
18 0 4 -17 12 -37 18 -28 7 -36 15 -34 28 2 13 -1 17 -11 13 -18 -7 -57 19
-57 39 0 8 -5 14 -11 14 -6 0 -25 12 -43 28 -28 24 -31 33 -34 92 -2 36 6 136
17 223 23 176 25 250 11 417 -19 222 -38 293 -70 255 -17 -21 -7 -279 14 -358
9 -32 16 -95 16 -140 0 -94 -19 -247 -31 -247 -14 0 -19 18 -7 23 10 4 9 8 -2
16 -9 6 -16 6 -18 1 -2 -5 -10 -6 -18 -3 -9 3 -14 0 -12 -7 2 -7 -2 -14 -9
-17 -7 -3 -9 3 -6 16 3 12 12 21 21 21 28 0 -2 21 -44 30 -26 6 -41 5 -45 -2
-4 -6 -12 -7 -18 -4 -6 4 -12 0 -12 -8 -1 -9 -3 -20 -4 -26 -1 -5 -3 -14 -4
-20 0 -5 -5 -10 -10 -10 -5 0 -7 12 -4 28 3 15 6 34 8 42 2 14 -12 30 -27 30
-4 0 -12 -24 -18 -54 -13 -64 -33 -96 -50 -80 -8 8 -5 48 10 152 58 396 186
679 373 826 71 55 170 107 330 173 126 51 108 56 172 -45 22 -35 36 -49 41
-41 5 9 10 8 19 -4 9 -13 9 -31 -1 -79 -8 -35 -14 -104 -14 -154 l0 -91 -75 5
c-112 7 -149 -7 -233 -89 -98 -95 -126 -151 -127 -249 0 -84 13 -116 67 -169
76 -76 203 -104 308 -67 24 8 46 14 47 12 2 -2 -11 -84 -28 -182 -17 -98 -32
-190 -34 -204 -15 -111 -26 -200 -29 -225 -3 -16 -7 -38 -11 -48 -7 -15 1 -17
81 -16 49 0 84 3 77 5 -8 4 -8 14 3 41 8 19 13 40 11 46 -2 7 2 18 10 25 16
17 17 63 1 59 -7 -1 -14 9 -16 23 -2 20 -1 22 7 10 6 -8 11 -13 11 -10 7 43 6
88 -2 98 -8 9 -5 12 11 12 12 0 21 6 21 15 0 8 -5 15 -12 15 -7 0 -5 6 4 18 9
9 14 25 13 35 -2 9 2 17 8 18 7 0 2 4 -11 9 -27 11 -28 27 -4 49 17 16 28 96
11 86 -5 -4 -9 6 -9 20 0 18 6 29 20 32 11 3 20 14 20 25 0 10 -4 16 -10 13
-5 -3 -10 2 -10 12 0 24 58 294 65 301 3 3 13 -2 24 -12 25 -23 114 -53 181
-61 76 -9 159 8 242 51 84 42 99 43 198 14 56 -16 113 -23 223 -27 l148 -6 39
-51 c37 -48 108 -109 158 -135 21 -11 21 -13 6 -42 -11 -23 -12 -34 -4 -44 8
-10 0 -36 -34 -108 -89 -185 -139 -389 -119 -487 7 -39 12 -45 36 -48 25 -3
26 -2 17 23 -33 87 10 290 97 465 54 107 60 115 85 112 22 -3 31 4 52 41 l26
44 83 6 c45 3 83 4 84 3 2 -1 -13 -41 -31 -88 -63 -155 -157 -444 -190 -580
l-6 -28 84 0 85 0 10 37 c6 20 7 41 4 46 -4 6 -1 7 7 2 8 -5 11 -3 8 6 -3 8
-1 25 4 38 6 16 4 29 -4 39 -11 13 -10 15 5 9 10 -4 17 -2 17 5 0 6 -8 17 -17
24 -12 9 -14 14 -5 15 6 1 17 3 22 4 6 1 15 3 20 4 16 2 12 61 -5 67 -8 4 -15
13 -15 22 0 13 2 13 18 -1 21 -19 37 -23 27 -7 -4 6 -2 17 4 24 6 7 9 22 6 34
-2 12 0 22 6 22 13 0 11 34 -3 48 -8 8 -8 12 -1 12 6 0 11 12 11 28 -1 25 51
175 83 246 7 16 33 41 56 55 24 15 86 69 138 120 72 72 99 92 115 88 11 -3 20
-1 20 4 0 5 -10 9 -22 9 -22 0 -22 0 -2 18 11 10 35 24 53 30 43 15 105 6 97
-14 -3 -8 0 -14 5 -14 6 0 9 9 6 20 -3 10 0 26 7 34 14 17 62 34 52 17 -5 -7
-1 -9 8 -5 9 3 13 11 10 16 -4 6 2 7 16 3 17 -5 21 -4 15 5 -5 9 -4 11 4 6 6
-4 21 -4 32 -1 17 6 19 9 8 17 -10 7 -8 7 9 3 16 -5 22 -2 22 10 0 11 6 15 18
11 9 -3 24 -1 32 4 8 5 11 10 5 10 -5 1 22 16 60 35 67 33 133 46 120 25 -3
-5 -1 -10 5 -10 7 0 14 8 17 18 3 13 14 18 38 18 37 0 34 -4 -27 -36 -25 -14
-36 -26 -35 -40 2 -24 6 -24 31 -5 11 8 28 15 38 15 10 0 18 5 18 10 0 6 6 10
13 10 7 0 38 13 69 29 31 16 59 27 62 24 3 -4 6 -2 6 4 0 6 9 13 21 16 13 4
18 10 13 18 -4 8 -3 10 4 5 12 -7 75 16 167 60 57 27 65 28 99 13 27 -13 25
-33 -7 -62 -20 -17 -14 -22 20 -18 7 1 23 -5 36 -14 13 -8 27 -12 30 -9 4 4
12 2 19 -3 7 -6 25 -13 39 -16 69 -17 200 -183 266 -340 44 -105 83 -249 83
-307 -1 -69 -36 -198 -68 -247 -8 -13 -12 -23 -8 -23 3 0 -10 -27 -29 -59 -19
-33 -35 -63 -35 -67 0 -5 -11 -20 -25 -34 -27 -26 -126 -146 -138 -167 -6 -9
39 -12 187 -13 168 0 195 2 200 16 17 44 -2 444 -28 594 -34 192 -110 388
-200 514 -95 133 -269 276 -454 373 -74 38 -90 52 -113 92 -28 49 -69 86 -175
160 -61 42 -127 117 -237 269 -64 88 -100 112 -165 112 -22 0 -68 13 -106 30
-37 17 -100 36 -141 43 l-73 11 -6 46 c-24 169 -15 392 21 506 16 51 16 52 72
64 122 27 279 129 356 233 77 102 111 186 122 301 5 53 14 83 35 117 48 78
124 249 156 349 90 283 79 538 -33 777 -65 138 -229 376 -386 558 -120 139
-393 405 -385 375 3 -14 9 -44 12 -67 8 -52 -12 -65 -57 -39 -31 18 -35 13
-19 -30 6 -15 9 -29 7 -31 -3 -2 -47 15 -98 38 -218 96 -505 178 -854 244
-186 35 -275 40 -291 14 -11 -19 -34 -9 -34 15 0 27 -3 28 -158 47 -87 11 -94
11 -107 -7 -15 -18 -16 -18 -38 8 -19 23 -34 29 -85 34 -57 6 -62 5 -62 -12z
m-530 -773 c0 -27 -19 -36 -37 -18 -18 18 -9 37 18 37 12 0 19 -7 19 -19z
m3009 -1194 c14 -17 4 -27 -25 -27 -30 0 -39 16 -17 29 24 14 29 13 42 -2z
m-664 -984 c-42 -100 -61 -286 -46 -445 14 -143 37 -294 57 -378 15 -58 58
-160 68 -160 2 0 2 19 -2 42 l-5 42 31 -23 c17 -12 34 -26 37 -30 7 -12 -86
-132 -126 -163 l-34 -25 -53 47 c-87 81 -243 125 -363 102 -124 -23 -277 -117
-388 -238 -71 -77 -146 -220 -162 -309 -7 -33 -13 -66 -15 -72 -2 -9 -23 -13
-61 -13 -59 1 -192 15 -198 22 -3 2 7 37 20 77 26 77 40 173 50 361 8 125 -12
321 -40 400 -18 50 -14 54 47 64 41 7 380 131 514 189 127 55 301 144 363 186
103 71 181 163 245 289 19 38 32 52 47 52 16 0 19 -4 14 -17z m262 -700 c118
-69 206 -203 205 -316 0 -88 -21 -131 -141 -291 -59 -78 -128 -172 -156 -211
-75 -107 -310 -343 -354 -355 -126 -35 -246 19 -281 126 -18 53 -8 160 20 214
58 116 136 170 254 178 l71 5 48 56 c26 31 77 90 113 131 87 101 199 269 219
331 22 66 14 91 -43 135 -53 41 -28 39 45 -3z m-1981 -236 c-100 -75 -131
-104 -176 -160 -60 -75 -133 -219 -155 -306 -16 -63 -22 -219 -10 -263 5 -21
5 -21 -9 2 -57 101 -36 274 55 451 78 151 230 297 309 298 9 0 3 -9 -14 -22z
m482 -94 c-3 -18 -8 -14 -35 27 l-33 49 28 15 27 14 8 -41 c4 -23 6 -52 5 -64z
m772 -51 c-162 -90 -315 -268 -371 -432 -60 -176 -24 -382 85 -484 l41 -38
-43 21 c-56 28 -92 67 -128 138 -28 55 -29 64 -29 188 1 121 3 135 31 206 42
105 94 181 188 274 82 81 144 121 239 156 82 29 79 22 -13 -29z m-924 -13 c34
-16 49 -32 70 -75 25 -51 26 -62 21 -143 -11 -166 -57 -286 -151 -388 -86 -95
-188 -125 -280 -85 -38 18 -50 29 -67 68 -47 105 -35 234 36 379 55 114 125
193 207 234 72 36 106 38 164 10z m-786 -50 c10 -40 10 -53 0 -62 -10 -10 -11
-6 -6 16 5 19 3 26 -4 22 -6 -4 -10 -3 -9 2 4 22 -3 32 -23 35 -21 3 -21 4 -4
21 27 26 33 21 46 -34z m3170 -229 c-8 -5 -19 -10 -25 -10 -5 0 -3 5 5 10 8 5
20 10 25 10 6 0 3 -5 -5 -10z m50 -15 c-7 -8 -21 -15 -30 -15 -10 0 -20 -4
-22 -9 -1 -5 -16 -12 -33 -16 -27 -6 -26 -4 15 24 49 33 92 43 70 16z m-120
-49 c0 -3 -4 -8 -10 -11 -5 -3 -10 -1 -10 4 0 6 5 11 10 11 6 0 10 -2 10 -4z
m-92 -73 c2 -7 -1 -13 -8 -13 -6 0 -9 4 -5 9 3 5 -3 12 -12 15 -15 4 -15 5 1
3 11 -1 21 -8 24 -14z m-124 -8 c-7 -18 7 -20 24 -3 6 6 14 9 18 6 3 -4 -4
-12 -16 -18 -16 -9 -25 -9 -36 0 -14 12 -10 30 6 30 5 0 7 -7 4 -15z m-3475
-292 c1 -30 -3 -53 -9 -53 -6 0 -9 43 -9 113 2 100 3 105 9 52 4 -33 8 -84 9
-112z m558 121 c104 -25 110 -28 152 -75 l44 -49 -12 -55 -12 -55 -40 0 c-21
0 -62 -9 -91 -20 -29 -11 -62 -20 -72 -20 -24 0 -299 79 -307 88 -17 17 28
108 80 165 l55 59 48 -5 c26 -3 96 -18 155 -33z m-550 -291 c-2 -21 -4 -6 -4
32 0 39 2 55 4 38 2 -18 2 -50 0 -70z m-187 -247 c0 -3 -4 -8 -10 -11 -5 -3
-10 -1 -10 4 0 6 5 11 10 11 6 0 10 -2 10 -4z m4590 -203 c-11 -17 -11 -17 -6
0 3 10 6 24 7 30 0 9 2 9 5 0 3 -7 0 -20 -6 -30z m-2046 -8 c3 -8 1 -15 -4
-15 -6 0 -10 7 -10 15 0 8 2 15 4 15 2 0 6 -7 10 -15z m1986 -125 c-6 -11 -13
-20 -16 -20 -2 0 0 9 6 20 6 11 13 20 16 20 2 0 0 -9 -6 -20z m-45 -67 c-28
-45 -95 -131 -113 -145 -8 -7 16 29 54 79 68 92 92 118 59 66z m-3625 -33 c0
-5 -5 -10 -11 -10 -5 0 -7 5 -4 10 3 6 8 10 11 10 2 0 4 -4 4 -10z"/>
<path d="M2444 1606 c-73 -34 -121 -87 -167 -185 -35 -73 -41 -98 -44 -166 -3
-70 -1 -85 19 -120 20 -34 29 -40 61 -43 108 -9 253 164 276 328 12 85 -1 169
-30 193 -28 23 -54 21 -115 -7z"/>
<path d="M1919 4021 c-31 -32 -43 -75 -13 -51 12 11 15 11 12 0 -2 -7 3 -15
10 -17 8 -3 12 5 12 25 0 50 21 58 82 30 29 -14 85 -45 123 -70 122 -77 143
-68 25 12 -73 49 -174 100 -200 100 -12 0 -35 -13 -51 -29z"/>
<path d="M1726 3783 c-30 -221 -31 -259 -11 -267 10 -3 20 -5 22 -3 2 2 13 85
25 183 11 98 22 180 23 182 2 2 23 -2 47 -8 40 -10 47 -17 66 -58 l21 -47 -2
43 c-1 23 0 42 3 42 3 0 39 -10 80 -23 l75 -23 5 -114 c3 -63 5 -117 4 -118
-6 -10 -81 27 -106 51 -32 33 -38 22 -8 -16 23 -29 162 -87 208 -87 48 0 76
49 88 149 6 52 9 61 27 61 20 0 20 0 1 21 -37 41 -98 71 -193 95 -89 22 -316
64 -345 64 -9 0 -19 -41 -30 -127z m398 -59 c9 -23 8 -24 -14 -24 -11 0 -20 2
-20 4 0 12 13 36 20 36 4 0 11 -7 14 -16z"/>
<path d="M2920 3777 c-32 -20 -33 -22 -13 -25 13 -2 33 4 45 12 44 31 137 17
353 -53 66 -22 134 -42 150 -45 l30 -6 -25 14 c-43 23 -235 86 -327 106 -117
26 -169 25 -213 -3z"/>
<path d="M1784 3675 c-4 -8 -3 -26 0 -40 8 -30 42 -34 51 -5 13 40 -37 84 -51
45z"/>
<path d="M2877 3666 c-3 -7 -45 -25 -94 -40 -128 -39 -138 -44 -78 -45 80 -2
95 -8 84 -38 -14 -38 -11 -39 21 -8 29 28 29 28 127 21 54 -3 121 -9 149 -12
l51 -6 6 -92 c4 -50 9 -100 12 -112 6 -20 4 -20 -67 -12 -81 10 -219 44 -260
64 -32 16 -38 17 -38 5 0 -14 91 -49 187 -73 63 -15 121 -22 204 -22 l117 -1
83 56 c46 31 126 80 177 108 93 53 111 71 69 71 -13 0 -88 16 -168 35 -216 54
-435 95 -501 95 -32 0 -58 4 -58 10 0 15 -17 12 -23 -4z m312 -218 c-31 -12
-43 1 -23 24 17 18 19 19 31 1 12 -15 11 -18 -8 -25z m316 32 c-3 -5 -10 -10
-16 -10 -5 0 -9 5 -9 10 0 6 7 10 16 10 8 0 12 -4 9 -10z"/>
<path d="M4298 3490 c-52 -28 -101 -93 -153 -203 -46 -99 -89 -235 -83 -264 2
-9 25 37 51 103 26 65 59 139 72 164 l23 45 21 -45 c34 -75 26 -112 -41 -192
-22 -27 -38 -51 -35 -54 3 -3 27 9 52 26 50 34 84 93 85 143 0 35 -25 95 -51
123 -19 21 -19 21 11 62 34 47 101 86 131 77 23 -7 49 -60 49 -98 0 -43 -31
-142 -65 -210 -39 -76 -28 -84 22 -18 53 69 94 237 62 257 -6 3 -9 18 -6 32 7
35 -32 72 -75 72 -18 -1 -50 -10 -70 -20z"/>
<path d="M2175 3241 c-41 -16 -71 -33 -73 -43 -7 -38 120 -225 163 -242 19 -7
19 -7 -48 92 -27 41 -55 89 -63 108 l-14 34 37 19 c31 15 87 63 72 60 -2 0
-35 -13 -74 -28z"/>
<path d="M2550 2910 c0 -5 7 -10 15 -10 8 0 15 5 15 10 0 6 -7 10 -15 10 -8 0
-15 -4 -15 -10z"/>
<path d="M3440 2880 c0 -5 7 -10 15 -10 8 0 15 5 15 10 0 6 -7 10 -15 10 -8 0
-15 -4 -15 -10z"/>
<path d="M2165 2679 c59 -40 161 -87 213 -98 104 -22 232 -11 337 29 41 16 16
30 -52 30 -49 0 -69 -12 -40 -23 6 -3 -15 -6 -48 -8 -149 -6 -239 10 -353 62
-75 34 -100 38 -57 8z"/>
<path d="M2490 2259 c0 -5 5 -7 10 -4 6 3 10 8 10 11 0 2 -4 4 -10 4 -5 0 -10
-5 -10 -11z"/>
<path d="M5072 1348 c6 -18 28 -21 28 -4 0 9 -7 16 -16 16 -9 0 -14 -5 -12
-12z"/>
<path d="M4400 1150 c0 -5 5 -10 10 -10 6 0 10 5 10 10 0 6 -4 10 -10 10 -5 0
-10 -4 -10 -10z"/>
<path d="M4370 1141 c-8 -5 -33 -16 -54 -25 -25 -11 -36 -20 -29 -27 11 -11
43 -2 43 13 0 5 4 6 10 3 14 -9 43 10 46 29 1 9 2 16 1 15 -1 0 -9 -4 -17 -8z"/>
<path d="M4233 1078 c-13 -6 -23 -15 -23 -19 0 -5 -6 -6 -12 -4 -15 5 -45 -11
-37 -20 8 -8 120 30 120 41 0 13 -23 14 -48 2z"/>
<path d="M4097 1019 c7 -7 15 -10 18 -7 3 3 -2 9 -12 12 -14 6 -15 5 -6 -5z"/>
<path d="M4065 932 c-80 -67 -218 -314 -269 -483 -21 -70 -96 -413 -96 -441 0
-4 23 -8 50 -8 28 0 50 2 50 5 0 3 -9 23 -20 45 -25 49 -25 50 5 217 49 270
155 509 283 641 41 41 38 59 -3 24z"/>
<path d="M1866 17 c3 -10 9 -15 12 -12 3 3 0 11 -7 18 -10 9 -11 8 -5 -6z"/>
</g>
</svg>
